<?xml version="1.0" encoding="utf-8"?>
<!-- Generator: Adobe Illustrator 18.1.1, SVG Export Plug-In . SVG Version: 6.00 Build 0)  -->
<svg version="1.1" id="Layer_1" xmlns="http://www.w3.org/2000/svg" xmlns:xlink="http://www.w3.org/1999/xlink" x="0px" y="0px"
	 viewBox="0 0 348 178" enable-background="new 0 0 348 178" xml:space="preserve">
<g>
	<path d="M43.5,93.7c-10.5,0-18.3-9.8-18.3-25.1c0-16.1,8.3-25.3,18-25.3c5.3,0,11.6,3.3,15.3,9.3v32.2
		C54.9,90.3,49.2,93.7,43.5,93.7 M58.5,1.3v34.9c-4.7-4.7-10.9-7.9-18.2-7.9c-18,0-33.7,15.9-33.7,41.2c0,21.8,12.6,38.9,32.7,38.9
		c7.7,0,14.6-3.4,20.5-9.6l6.3,8.1h10.6V1.3H58.5z M294.2,1.3V107h-9.7l-8.5-8.5V1.3H294.2z M194.8,59.4H225
		c-0.5-10.9-6.2-17.6-14.6-17.6C201.8,41.9,195.7,49,194.8,59.4 M241.3,95.9c-5.7,6.8-15.2,12.5-27.4,12.5
		c-21.7,0-37.4-15.1-37.4-40c0-23.9,14.1-40.1,33.2-40.1c20.8,0,34.2,16.8,31.6,42.9h-46.3c0,0.2,0,0.4,0,0.7
		c0,12.8,7.7,21.5,19.3,21.5c6.3,0,12.2-2.3,17-6.9L241.3,95.9z M161,29.8l-11.5,54.1l-12.3-54.1h-17.6l3.8,13.5l-11.5,40.8
		L99.5,29.8H81.9l21.7,77.2h15.2l11.6-38.8l10.9,38.8h16.4l21-77.2H161z M248,1.3v97.2l8.5,8.5h9.7V1.3H248z"/>
	<g>
		<path d="M59.1,164.3c0.1-2.7-0.1-4.9-0.2-7.5h2.4c0.4,3.9,1.8,6,6.5,6c3.2,0,5.5-1.7,5.5-4.5c0-6.5-14-3.4-14-13.7
			c0-4.7,4.4-7.7,10.3-7.7c2.9,0,6.2,0.8,7.8,1.5c-0.1,2.4,0,4,0.2,6.4h-2.4c-0.3-3.5-2-5.3-5.7-5.3c-3.2,0-5.2,1.3-5.2,3.9
			c0,6,14.1,3.7,14.1,13.7c0,5.1-4.8,8.5-10.5,8.5C64.4,165.6,61.4,165,59.1,164.3z"/>
		<path d="M86.2,158.7v-18.1h-3.4v-2.1c3.8-1.6,5.8-4.4,6.8-7.7h2.2v6.8h8v3h-8v17c0,3.3,1,4.6,3.9,4.6c1.5,0,3.1-0.3,3.9-0.6
			l0.2,1.5c-1,1.5-4,2.6-7,2.6C88,165.6,86.2,163.3,86.2,158.7z"/>
		<path d="M102.7,151.4c0-8.2,5.3-14.6,13.4-14.6c8.4,0,13.1,5.7,13.1,14.1c0,8.2-5.3,14.6-13.5,14.6
			C107.2,165.6,102.7,160,102.7,151.4z M123.1,151.6c0-7.1-2.4-12-7.2-12c-4.5,0-6.9,4.5-6.9,11.4c0,7.3,2.6,11.9,7.1,11.9
			C120.8,162.8,123.1,158.3,123.1,151.6z"/>
		<path d="M134.2,163l1.8-0.3c1.3-0.2,1.9-0.6,1.9-4.4v-13.3c0-2.7-0.2-3.4-3.6-4.1v-1.7c3.2-0.8,6.2-1.5,9.3-2.6v4.5
			c1.4-2.2,4.5-4.2,7.2-4.2c1,0,1.9,0.2,2.6,0.3l-0.7,5c-0.7-0.4-2.2-0.7-3.3-0.7c-1.8,0-4,0.6-5.7,2v14.9c0,3.7,0.6,4.2,1.9,4.4
			l2.6,0.3v1.8c-1.4-0.1-5.2-0.2-7.5-0.2s-5,0.2-6.4,0.2V163z"/>
		<path d="M155.6,151.7c0-8.8,5.5-14.8,13-14.8c7.4,0,10.6,5.2,10.6,10.8c0,0.7,0,1.4-0.1,2.1h-17.5c-0.1,0.4-0.1,1-0.1,1.4
			c0,5.8,3.1,10.3,9,10.3c3.1,0,5.4-0.6,7.2-1.5l0.2,1.6c-1.1,1.8-4.8,3.9-9.2,3.9C160.3,165.6,155.6,160.2,155.6,151.7z
			 M172.3,147.2c1,0,1.3-0.4,1.3-1.2c0-3.1-1.6-6.3-5.2-6.3c-4.1,0-6.2,3.8-6.6,7.5H172.3z"/>
	</g>
	<g>
		<polygon points="178,125.2 229.1,176.3 230.8,176.3 179.6,125.2 		"/>
	</g>
	<g>
		<polygon points="6.2,125.2 57.3,176.3 59,176.3 7.8,125.2 		"/>
	</g>
</g>
</svg>
